# xmcd
#
# Track frame offsets: 
#        150
#        24751
#        50364
#        67877
#        95397
#        108150
#        129347
#        145550
#        167730
#        186945
#        208032
#        231950
#        244623
#        265664
#        280759
#        298906
#        312884
#        330487
#
# Disc length: 4680 seconds
#
# Revision: 0
# Processed by: cddbd v1.5.2PL0 Copyright (c) Steve Scherf et al.
# Submitted via: ExactAudioCopy v1.0b1
#
DISCID=f4124612
DTITLE=Various Artist - A History Of The Blues, Part 2 [CD1]
DYEAR=2010
DGENRE=Blues
TTITLE0=Muddy Waters - Mannish Boy
TTITLE1=John Lee Hooker - Sittin' In My Dark Room
TTITLE2=Jimi Hendrix - Red House
TTITLE3=B.B. King - You're Still My Woman
TTITLE4=Albert King - Born Under A Bad Sign
TTITLE5=Aretha Franklin - The Thrill Is Gone (From Yesterday's Kiss)
TTITLE6=Sonny Terry and Brownie McGhee - Bring It On Home To Me
TTITLE7=B.B. King - Chains And Things
TTITLE8=Champion Jack Dupree - One Scotch, One Bourbon, One Beer
TTITLE9=Sunnyland Slim - Bessie Mae
TTITLE10=Pinetop Perkins - Sweet Black Angel
TTITLE11=Sonny Terry &Brownie McGhee - The Battle Is Over
TTITLE12=B.B. King - Hummingbird
TTITLE13=Aretha Franklin - Son Of A Preacher Man
TTITLE14=Sonny Terry and Brownie McGhee - People Get Ready
TTITLE15=Sunnyland Slim - I Had It Hard
TTITLE16=Champion Jack Dupree - Rolling And Tumbling
TTITLE17=Pinetop Perkins - Pinetop Boogie Woogie
EXTD=
EXTT0=
EXTT1=
EXTT2=
EXTT3=
EXTT4=
EXTT5=
EXTT6=
EXTT7=
EXTT8=
EXTT9=
EXTT10=
EXTT11=
EXTT12=
EXTT13=
EXTT14=
EXTT15=
EXTT16=
EXTT17=
PLAYORDER=
